<svg width="37" height="36" viewBox="0 0 37 36" fill="none" xmlns="http://www.w3.org/2000/svg">
<rect x="1.15" y="0.4" width="35.2" height="35.2" rx="7.6" fill="#FEF3E2"/>
<rect x="1.15" y="0.4" width="35.2" height="35.2" rx="7.6" stroke="#FFEAC9" stroke-width="0.8"/>
<path d="M15.0002 10.9165C13.7037 10.9554 12.9307 11.0997 12.3958 11.6351C11.6636 12.368 11.6636 13.5476 11.6636 15.9068V21.3285C11.6636 23.6878 11.6636 24.8673 12.3958 25.6003C13.128 26.3332 14.3066 26.3332 16.6636 26.3332H20.8302C23.1872 26.3332 24.3657 26.3332 25.098 25.6003C25.8302 24.8673 25.8302 23.6878 25.8302 21.3285V15.9068C25.8302 13.5476 25.8302 12.368 25.098 11.6351C24.5632 11.0997 23.7902 10.9554 22.4937 10.9165" stroke="#E48E04" stroke-width="1.5"/>
<path d="M14.9966 11.1248C14.9966 10.3194 15.6495 9.6665 16.4549 9.6665H21.0383C21.8437 9.6665 22.4966 10.3194 22.4966 11.1248C22.4966 11.9303 21.8437 12.5832 21.0383 12.5832H16.4549C15.6495 12.5832 14.9966 11.9303 14.9966 11.1248Z" stroke="#E48E04" stroke-width="1.5" stroke-linejoin="round"/>
<path d="M20 17.1665H22.9167" stroke="#E48E04" stroke-width="1.5" stroke-linecap="round"/>
<path d="M14.5835 18.0002C14.5835 18.0002 15.0002 18.0002 15.4168 18.8335C15.4168 18.8335 16.7404 16.7502 17.9168 16.3335" stroke="#E48E04" stroke-width="1.5" stroke-linecap="round" stroke-linejoin="round"/>
<path d="M20 22.1665H22.9167" stroke="#E48E04" stroke-width="1.5" stroke-linecap="round"/>
<path d="M15.4165 22.1665H16.2498" stroke="#E48E04" stroke-width="2" stroke-linecap="round" stroke-linejoin="round"/>
</svg>
