<svg width="42" height="42" viewBox="0 0 42 42" fill="none" xmlns="http://www.w3.org/2000/svg">
<rect x="0.5" y="0.5" width="41" height="41" rx="12.5" fill="#039807"/>
<rect x="0.5" y="0.5" width="41" height="41" rx="12.5" stroke="#35B939"/>
<path d="M31 21C31 15.4771 26.5228 11 21 11C15.4771 11 11 15.4771 11 21C11 26.5228 15.4771 31 21 31C26.5228 31 31 26.5228 31 21Z" stroke="#E6EAEE" stroke-width="2" stroke-linejoin="round"/>
<path d="M23.4 23.4L25 25M24.2 20.6C24.2 18.6118 22.5882 17 20.6 17C18.6118 17 17 18.6118 17 20.6C17 22.5882 18.6118 24.2 20.6 24.2C22.5882 24.2 24.2 22.5882 24.2 20.6Z" stroke="#E6EAEE" stroke-width="2" stroke-linecap="round" stroke-linejoin="round"/>
</svg>
