<svg width="20" height="20" viewBox="0 0 20 20" fill="none" xmlns="http://www.w3.org/2000/svg">
<path d="M11.6667 15C11.6667 15 12.5001 15 13.3334 16.6667C13.3334 16.6667 15.9805 12.5 18.3334 11.6667" stroke="#555E67" stroke-width="1.5" stroke-linecap="round" stroke-linejoin="round"/>
<path d="M10.8334 18.3334H5.49247C4.20466 18.3334 3.18034 17.7067 2.26063 16.8305C0.377886 15.0368 3.46908 13.6034 4.64806 12.9014C7.29667 11.3243 10.6275 11.258 13.3334 12.7027" stroke="#555E67" stroke-width="1.5" stroke-linecap="round" stroke-linejoin="round"/>
<path d="M13.75 5.41669C13.75 7.48775 12.0711 9.16669 10 9.16669C7.92893 9.16669 6.25 7.48775 6.25 5.41669C6.25 3.34562 7.92893 1.66669 10 1.66669C12.0711 1.66669 13.75 3.34562 13.75 5.41669Z" stroke="#555E67" stroke-width="1.5"/>
</svg>
