<svg width="42" height="42" viewBox="0 0 42 42" fill="none" xmlns="http://www.w3.org/2000/svg">
<rect x="0.5" y="0.5" width="41" height="41" rx="12.5" fill="#4A22B3"/>
<rect x="0.5" y="0.5" width="41" height="41" rx="12.5" stroke="#6E4EC2"/>
<path d="M29.774 27C30.5233 27 31.1193 26.5285 31.6544 25.8691C32.7499 24.5194 30.9513 23.4408 30.2653 22.9126C29.568 22.3756 28.7894 22.0714 28 22M27 20C28.3807 20 29.5 18.8807 29.5 17.5C29.5 16.1193 28.3807 15 27 15" stroke="white" stroke-width="1.5" stroke-linecap="round"/>
<path d="M12.226 27C11.4767 27 10.8807 26.5285 10.3455 25.8691C9.25009 24.5194 11.0487 23.4408 11.7346 22.9126C12.432 22.3756 13.2106 22.0714 14 22M14.5 20C13.1193 20 12 18.8807 12 17.5C12 16.1193 13.1193 15 14.5 15" stroke="white" stroke-width="1.5" stroke-linecap="round"/>
<path d="M17.0838 24.1112C16.062 24.743 13.383 26.0331 15.0147 27.6474C15.8118 28.436 16.6995 29 17.8156 29H24.1844C25.3005 29 26.1882 28.436 26.9853 27.6474C28.617 26.0331 25.938 24.743 24.9162 24.1112C22.5201 22.6296 19.4798 22.6296 17.0838 24.1112Z" stroke="white" stroke-width="1.5" stroke-linecap="round" stroke-linejoin="round"/>
<path d="M24.5 16.5C24.5 18.433 22.933 20 21 20C19.067 20 17.5 18.433 17.5 16.5C17.5 14.567 19.067 13 21 13C22.933 13 24.5 14.567 24.5 16.5Z" stroke="white" stroke-width="1.5"/>
</svg>
