<svg width="20" height="20" viewBox="0 0 20 20" fill="none" xmlns="http://www.w3.org/2000/svg">
<g id="eye">
<path id="Vector" d="M1.66699 6.66667C1.66699 6.66667 5.39795 2.5 10.0003 2.5C14.6027 2.5 18.3337 6.66667 18.3337 6.66667" stroke="#8B9097" stroke-width="1.4" stroke-linecap="round"/>
<path id="Vector_2" d="M17.9537 10.8708C18.207 11.2261 18.3337 11.4037 18.3337 11.6667C18.3337 11.9296 18.207 12.1072 17.9537 12.4625C16.8152 14.0588 13.908 17.5 10.0003 17.5C6.09264 17.5 3.18541 14.0588 2.04703 12.4625C1.79367 12.1072 1.66699 11.9296 1.66699 11.6667C1.66699 11.4037 1.79367 11.2261 2.04703 10.8708C3.18541 9.2745 6.09264 5.83333 10.0003 5.83333C13.908 5.83333 16.8152 9.2745 17.9537 10.8708Z" stroke="#8B9097" stroke-width="1.4"/>
<path id="Vector_3" d="M12.5 11.6667C12.5 10.2859 11.3807 9.16667 10 9.16667C8.61925 9.16667 7.5 10.2859 7.5 11.6667C7.5 13.0474 8.61925 14.1667 10 14.1667C11.3807 14.1667 12.5 13.0474 12.5 11.6667Z" stroke="#8B9097" stroke-width="1.4"/>
</g>
</svg>
