<svg width="64" height="64" viewBox="0 0 64 64" fill="none" xmlns="http://www.w3.org/2000/svg">
<g id="forgot-password">
<g id="Vector">
<path d="M41.0533 58.4024C37.2896 58.576 33.4661 58.6667 29.2557 58.6667C25.0452 58.6667 21.2217 58.576 17.4579 58.4024C12.9848 58.196 9.30907 54.7067 8.71157 50.2525C8.32163 47.3459 8 44.3669 8 41.3333C8 38.2997 8.3216 35.3208 8.71157 32.4141C9.30907 27.96 12.9848 24.4706 17.4579 24.2642C21.2217 24.0906 25.0452 24 29.2557 24C33.4661 24 37.2896 24.0906 41.0533 24.2642C43.8787 24.3946 46.3856 25.8346 48 28" fill="#EDE9F7"/>
<path d="M41.0533 58.4024C37.2896 58.576 33.4661 58.6667 29.2557 58.6667C25.0452 58.6667 21.2217 58.576 17.4579 58.4024C12.9848 58.196 9.30907 54.7067 8.71157 50.2525C8.32163 47.3459 8 44.3669 8 41.3333C8 38.2997 8.3216 35.3208 8.71157 32.4141C9.30907 27.96 12.9848 24.4706 17.4579 24.2642C21.2217 24.0906 25.0452 24 29.2557 24C33.4661 24 37.2896 24.0906 41.0533 24.2642C43.8787 24.3946 46.3856 25.8346 48 28" stroke="#4A22B3" stroke-width="4" stroke-linecap="round"/>
</g>
<path id="Vector_2" d="M45.3335 39.9417C45.3335 37.0286 47.7212 34.667 50.6668 34.667C53.6124 34.667 56.0002 37.0286 56.0002 39.9417C56.0002 40.9918 55.69 41.9702 55.1551 42.7921C53.5612 45.2419 50.6668 47.5779 50.6668 50.4913V51.8099M50.6668 58.667H50.6988" stroke="#4A22B3" stroke-width="4" stroke-linecap="round" stroke-linejoin="round"/>
<g id="Vector_3">
<path d="M17.3335 23.9997V17.333C17.3335 10.7056 22.7061 5.33301 29.3335 5.33301C35.961 5.33301 41.3335 10.7056 41.3335 17.333V23.9997" fill="#EDE9F7"/>
<path d="M17.3335 23.9997V17.333C17.3335 10.7056 22.7061 5.33301 29.3335 5.33301C35.961 5.33301 41.3335 10.7056 41.3335 17.333V23.9997" stroke="#4A22B3" stroke-width="4" stroke-linecap="round" stroke-linejoin="round"/>
</g>
<path id="Vector_4" d="M32 41.3076V41.3343" stroke="#4A22B3" stroke-width="5.33333" stroke-linecap="round" stroke-linejoin="round"/>
<path id="Vector_5" d="M21.3335 41.3076V41.3343" stroke="#4A22B3" stroke-width="5.33333" stroke-linecap="round" stroke-linejoin="round"/>
</g>
</svg>
