<svg width="64" height="65" viewBox="0 0 64 65" fill="none" xmlns="http://www.w3.org/2000/svg">
<path d="M13.3344 19.167L10.0842 21.3337C7.7543 22.887 6.58934 23.6637 5.95801 24.8481C5.32667 26.0325 5.33137 27.4246 5.3407 30.2086C5.35198 33.5603 5.38313 36.9755 5.46939 40.4313C5.67403 48.6302 5.77638 52.7297 8.79078 55.7441C11.8052 58.7587 15.96 58.8625 24.2696 59.0702C29.4393 59.1993 34.563 59.1993 39.7323 59.0702C48.0422 58.8625 52.1969 58.7587 55.2113 55.7441C58.2257 52.7297 58.3281 48.6302 58.5326 40.4313C58.619 36.9755 58.6499 33.5603 58.6614 30.2086C58.6707 27.4246 58.6753 26.0325 58.0441 24.8481C57.4126 23.6637 56.2478 22.887 53.9177 21.3337L50.6675 19.167" fill="#EDE9F7"/>
<path d="M13.3344 19.167L10.0842 21.3337C7.7543 22.887 6.58934 23.6637 5.95801 24.8481C5.32667 26.0325 5.33137 27.4246 5.3407 30.2086C5.35198 33.5603 5.38313 36.9755 5.46939 40.4313C5.67403 48.6302 5.77638 52.7297 8.79078 55.7441C11.8052 58.7587 15.96 58.8625 24.2696 59.0702C29.4393 59.1993 34.563 59.1993 39.7324 59.0702C48.0422 58.8625 52.1969 58.7587 55.2113 55.7441C58.2257 52.7297 58.3281 48.6302 58.5326 40.4313C58.619 36.9755 58.6499 33.5603 58.6614 30.2086C58.6707 27.4246 58.6753 26.0325 58.0441 24.8481C57.4126 23.6637 56.2478 22.887 53.9177 21.3337L50.6675 19.167" stroke="#4A22B3" stroke-width="1.4" stroke-linejoin="round"/>
<path d="M5.33325 27.167L23.768 38.2278C27.7786 40.6342 29.7839 41.8374 31.9999 41.8374C34.2159 41.8374 36.2213 40.6342 40.2319 38.2278L58.6666 27.167" fill="#EDE9F7"/>
<path d="M5.33325 27.167L23.768 38.2278C27.7786 40.6342 29.7839 41.8374 31.9999 41.8374C34.2159 41.8374 36.2212 40.6342 40.2319 38.2278L58.6666 27.167" stroke="#4A22B3" stroke-width="1.4" stroke-linejoin="round"/>
<path d="M13.3333 32.4997V16.4997C13.3333 11.4714 13.3333 8.95719 14.8954 7.39511C16.4575 5.83301 18.9716 5.83301 23.9999 5.83301H40C45.0282 5.83301 47.5424 5.83301 49.1045 7.39511C50.6666 8.95719 50.6666 11.4714 50.6666 16.4997V32.4997" fill="#EDE9F7"/>
<path d="M13.3333 32.4997V16.4997C13.3333 11.4714 13.3333 8.95719 14.8954 7.39511C16.4575 5.83301 18.9716 5.83301 23.9999 5.83301H40C45.0282 5.83301 47.5424 5.83301 49.1045 7.39511C50.6666 8.95719 50.6666 11.4714 50.6666 16.4997V32.4997" stroke="#4A22B3" stroke-width="1.4"/>
<path d="M26.6667 27.1667H37.3334M26.6667 16.5H37.3334" stroke="#AC99DC" stroke-width="1.4" stroke-linecap="round" stroke-linejoin="round"/>
</svg>
