<svg width="20" height="20" viewBox="0 0 20 20" fill="none" xmlns="http://www.w3.org/2000/svg">
<g id="angel">
<path id="Vector" d="M2.56548 6.25C1.99087 7.3799 1.66699 8.65833 1.66699 10.0123C1.66699 14.6079 5.39795 18.3333 10.0003 18.3333C14.6027 18.3333 18.3337 14.6079 18.3337 10.0123C18.3337 8.65833 18.0098 7.3799 17.4352 6.25" stroke="#555E67" stroke-width="1.25" stroke-linecap="round" stroke-linejoin="round"/>
<path id="Vector_2" d="M6.66699 12.5C7.42709 13.512 8.63724 14.1667 10.0003 14.1667C11.3634 14.1667 12.5736 13.512 13.3337 12.5" stroke="#555E67" stroke-width="1.25" stroke-linecap="round" stroke-linejoin="round"/>
<path id="Vector_3" d="M10.0003 4.99999C14.6027 4.99999 18.3337 4.2538 18.3337 3.33332C18.3337 2.41285 14.6027 1.66666 10.0003 1.66666C5.39795 1.66666 1.66699 2.41285 1.66699 3.33332C1.66699 4.2538 5.39795 4.99999 10.0003 4.99999Z" stroke="#555E67" stroke-width="1.25" stroke-linecap="round" stroke-linejoin="round"/>
<path id="Vector_4" d="M5.83301 8.75005C5.83301 8.05967 6.39265 7.50003 7.08301 7.50003C7.77337 7.50003 8.33301 8.05967 8.33301 8.75005M11.6663 8.74997C11.6663 8.05964 12.226 7.5 12.9163 7.5C13.6067 7.5 14.1663 8.05964 14.1663 8.74997" stroke="#555E67" stroke-width="1.25" stroke-linecap="round" stroke-linejoin="round"/>
</g>
</svg>
