<svg width="20" height="20" viewBox="0 0 20 20" fill="none" xmlns="http://www.w3.org/2000/svg">
<g id="justice-scale-01">
<path id="Vector" d="M10 4.16666V18.3333M10 18.3333H7.5M10 18.3333H12.5" stroke="#555E67" stroke-width="1.25" stroke-linecap="round" stroke-linejoin="round"/>
<path id="Vector_2" d="M17.4997 10.8333L15.4163 6.66666L13.333 10.8333" stroke="#555E67" stroke-width="1.25" stroke-linecap="round" stroke-linejoin="round"/>
<path id="Vector_3" d="M6.66667 10.8333L4.58333 6.66666L2.5 10.8333" stroke="#555E67" stroke-width="1.25" stroke-linecap="round" stroke-linejoin="round"/>
<path id="Vector_4" d="M3.33301 6.66666H4.20651C5.25939 6.66666 6.28092 6.22582 7.10309 5.41666C8.79651 3.74999 11.2028 3.74999 12.8963 5.41666C13.7184 6.22582 14.7399 6.66666 15.7928 6.66666H16.6663" stroke="#555E67" stroke-width="1.25" stroke-linecap="round" stroke-linejoin="round"/>
<path id="Vector_5" d="M15.4167 14.1667C16.5456 14.1667 17.5287 13.4719 18.0394 12.4458C18.315 11.8918 18.4528 11.6149 18.2012 11.2242C17.9497 10.8333 17.5333 10.8333 16.7006 10.8333H14.1327C13.3 10.8333 12.8837 10.8333 12.6321 11.2242C12.3805 11.6149 12.5183 11.8918 12.7939 12.4458C13.3047 13.4719 14.2878 14.1667 15.4167 14.1667Z" stroke="#555E67" stroke-width="1.25"/>
<path id="Vector_6" d="M4.58366 14.1667C5.71259 14.1667 6.69568 13.4719 7.20638 12.4458C7.48201 11.8918 7.61982 11.6149 7.36825 11.2242C7.11668 10.8333 6.70033 10.8333 5.86762 10.8333H3.2997C2.46699 10.8333 2.05064 10.8333 1.79907 11.2242C1.5475 11.6149 1.68531 11.8918 1.96094 12.4458C2.47164 13.4719 3.45473 14.1667 4.58366 14.1667Z" stroke="#555E67" stroke-width="1.25"/>
<path id="Vector_7" d="M11.25 2.91666C11.25 3.60701 10.6903 4.16666 10 4.16666C9.30967 4.16666 8.75 3.60701 8.75 2.91666C8.75 2.2263 9.30967 1.66666 10 1.66666C10.6903 1.66666 11.25 2.2263 11.25 2.91666Z" stroke="#555E67" stroke-width="1.25"/>
</g>
</svg>
