<svg width="20" height="20" viewBox="0 0 20 20" fill="none" xmlns="http://www.w3.org/2000/svg">
<g id="user-add-01">
<path id="Vector" d="M10.4167 18.3333H5.49247C4.20466 18.3333 3.18034 17.7067 2.26063 16.8305C0.377886 15.0368 3.46908 13.6033 4.64806 12.9013C6.39872 11.8589 8.44742 11.4766 10.4167 11.7543C11.1313 11.8551 11.8272 12.0428 12.5001 12.3174" stroke="#555E67" stroke-width="1.5" stroke-linecap="round" stroke-linejoin="round"/>
<path id="Vector_2" d="M13.75 5.41666C13.75 7.48772 12.0711 9.16666 10 9.16666C7.92893 9.16666 6.25 7.48772 6.25 5.41666C6.25 3.34559 7.92893 1.66666 10 1.66666C12.0711 1.66666 13.75 3.34559 13.75 5.41666Z" stroke="#555E67" stroke-width="1.5"/>
<path id="Vector_3" d="M15.4167 18.3333V12.5M12.5 15.4167H18.3333" stroke="#555E67" stroke-width="1.5" stroke-linecap="round"/>
</g>
</svg>
