<svg width="20" height="20" viewBox="0 0 20 20" fill="none" xmlns="http://www.w3.org/2000/svg">
<path d="M11.6666 18.3337V6.66699C11.6666 4.30997 11.6666 3.13146 10.9344 2.39923C10.2021 1.66699 9.02363 1.66699 6.66663 1.66699C4.3096 1.66699 3.13109 1.66699 2.39886 2.39923C1.66663 3.13146 1.66663 4.30997 1.66663 6.66699V13.3337C1.66663 15.6907 1.66663 16.8692 2.39886 17.6014C3.13109 18.3337 4.3096 18.3337 6.66663 18.3337H11.6666Z" stroke="#01060C" stroke-width="1.5" stroke-linecap="round"/>
<path d="M5.41671 9.16634H4.58337M8.75004 9.16634H7.91671M5.41671 5.83301H4.58337M5.41671 12.4997H4.58337M8.75004 5.83301H7.91671M8.75004 12.4997H7.91671" stroke="#01060C" stroke-width="1.5" stroke-linecap="round"/>
<path d="M15.4167 12.5003H14.5834M15.4167 9.16699H14.5834" stroke="#01060C" stroke-width="1.5" stroke-linecap="round"/>
<path d="M15 6.66699H11.6666V18.3337H15C16.5713 18.3337 17.357 18.3337 17.8451 17.8455C18.3333 17.3573 18.3333 16.5717 18.3333 15.0003V10.0003C18.3333 8.42899 18.3333 7.6433 17.8451 7.15515C17.357 6.66699 16.5713 6.66699 15 6.66699Z" stroke="#01060C" stroke-width="1.5" stroke-linecap="round"/>
</svg>
