<svg width="16" height="16" viewBox="0 0 16 16" fill="none" xmlns="http://www.w3.org/2000/svg">
<g id="comment-01">
<path id="Vector" d="M5.3335 9.00008H10.6668M5.3335 5.66675H8.00016" stroke="#0A376A" stroke-width="1.5" stroke-linecap="round" stroke-linejoin="round"/>
<path id="Vector_2" d="M4.06604 12.6667C3.1993 12.5815 2.55 12.3211 2.11454 11.8857C1.3335 11.1047 1.3335 9.84755 1.3335 7.33341V7.00008C1.3335 4.48592 1.3335 3.22885 2.11454 2.44779C2.8956 1.66675 4.15267 1.66675 6.66683 1.66675H9.3335C11.8476 1.66675 13.1048 1.66675 13.8858 2.44779C14.6668 3.22885 14.6668 4.48592 14.6668 7.00008V7.33341C14.6668 9.84755 14.6668 11.1047 13.8858 11.8857C13.1048 12.6667 11.8476 12.6667 9.3335 12.6667C8.95983 12.6751 8.66223 12.7035 8.3699 12.7701C7.57096 12.954 6.83116 13.3628 6.10008 13.7193C5.05836 14.2273 4.5375 14.4813 4.21062 14.2435C3.58529 13.7777 4.19652 12.3347 4.3335 11.6667" stroke="#0A376A" stroke-width="1.5" stroke-linecap="round"/>
</g>
</svg>
