<svg width="20" height="20" viewBox="0 0 20 20" fill="none" xmlns="http://www.w3.org/2000/svg">
<g id="user-love-01">
<path id="Vector" d="M10.8334 18.3333H5.49247C4.20466 18.3333 3.18034 17.7067 2.26063 16.8305C0.377886 15.0368 3.46908 13.6033 4.64806 12.9013C6.27557 11.9323 8.16067 11.5337 10.0001 11.7055" stroke="#555E67" stroke-width="1.5" stroke-linecap="round" stroke-linejoin="round"/>
<path id="Vector_2" d="M12.9167 5.41666C12.9167 7.48772 11.2378 9.16666 9.16675 9.16666C7.09568 9.16666 5.41675 7.48772 5.41675 5.41666C5.41675 3.34559 7.09568 1.66666 9.16675 1.66666C11.2378 1.66666 12.9167 3.34559 12.9167 5.41666Z" stroke="#555E67" stroke-width="1.5"/>
<path id="Vector_3" d="M12.5126 12.8222C13.4064 12.2891 14.1866 12.5039 14.6553 12.8461C14.8475 12.9864 14.9436 13.0566 15.0001 13.0566C15.0566 13.0566 15.1527 12.9864 15.3448 12.8461C15.8136 12.5039 16.5938 12.2891 17.4876 12.8222C18.6608 13.5217 18.9262 15.8298 16.2203 17.777C15.7048 18.1479 15.4472 18.3333 15.0001 18.3333C14.553 18.3333 14.2953 18.1479 13.7799 17.777C11.074 15.8298 11.3394 13.5217 12.5126 12.8222Z" stroke="#555E67" stroke-width="1.5" stroke-linecap="round"/>
</g>
</svg>
