<svg width="20" height="20" viewBox="0 0 20 20" fill="none" xmlns="http://www.w3.org/2000/svg">
<g id="user-list">
<path id="Vector" d="M4.23399 12.747C3.21876 13.3612 0.556895 14.6155 2.17815 16.185C2.97012 16.9517 3.85217 17.5 4.96112 17.5H11.2891C12.398 17.5 13.2801 16.9517 14.072 16.185C15.6932 14.6155 13.0314 13.3612 12.0162 12.747C9.6355 11.3066 6.61468 11.3066 4.23399 12.747Z" stroke="#555E67" stroke-width="1.5" stroke-linecap="round" stroke-linejoin="round"/>
<path id="Vector_2" d="M11.2499 5.83333C11.2499 7.67428 9.7575 9.16667 7.91659 9.16667C6.07564 9.16667 4.58325 7.67428 4.58325 5.83333C4.58325 3.99238 6.07564 2.5 7.91659 2.5C9.7575 2.5 11.2499 3.99238 11.2499 5.83333Z" stroke="#555E67" stroke-width="1.5"/>
<path id="Vector_3" d="M14.1667 4.16666H18.3334" stroke="#555E67" stroke-width="1.5" stroke-linecap="round" stroke-linejoin="round"/>
<path id="Vector_4" d="M14.1667 6.66666H18.3334" stroke="#555E67" stroke-width="1.5" stroke-linecap="round" stroke-linejoin="round"/>
<path id="Vector_5" d="M16.6667 9.16666H18.3334" stroke="#555E67" stroke-width="1.5" stroke-linecap="round" stroke-linejoin="round"/>
</g>
</svg>
