<svg width="20" height="21" viewBox="0 0 20 21" fill="none" xmlns="http://www.w3.org/2000/svg">
<path d="M10.3681 12.6278L8.44651 14.8779C7.61768 15.8484 7.20325 16.3337 6.66667 16.3337C6.13009 16.3337 5.71566 15.8484 4.88682 14.8779L2.96525 12.6278C2.09953 11.6142 1.66667 11.1073 1.66667 10.5003C1.66667 9.89333 2.09953 9.38649 2.96525 8.37282L4.88682 6.12278C5.71566 5.15225 6.13009 4.66699 6.66667 4.66699C7.20325 4.66699 7.61768 5.15225 8.44651 6.12278L10.3681 8.37282C11.2338 9.38649 11.6667 9.89333 11.6667 10.5003C11.6667 11.1073 11.2338 11.6142 10.3681 12.6278Z" stroke="#01060C" stroke-width="1.25" stroke-linecap="round" stroke-linejoin="round"/>
<path d="M10.8333 16.3337L13.7598 12.6697C14.5866 11.6345 15 11.1168 15 10.5003C15 9.88383 14.5866 9.36616 13.7598 8.33102L10.8333 4.66699" stroke="#01060C" stroke-width="1.25" stroke-linecap="round" stroke-linejoin="round"/>
<path d="M14.1667 16.3337L17.0932 12.6697C17.9199 11.6345 18.3333 11.1168 18.3333 10.5003C18.3333 9.88383 17.9199 9.36616 17.0932 8.33102L14.1667 4.66699" stroke="#01060C" stroke-width="1.25" stroke-linecap="round" stroke-linejoin="round"/>
</svg>
