<svg width="23" height="22" viewBox="0 0 23 22" fill="none" xmlns="http://www.w3.org/2000/svg">
<path d="M13.2276 2.44418L14.9874 5.99288C15.2274 6.48687 15.8673 6.9607 16.4073 7.05143L19.5969 7.58575C21.6367 7.92853 22.1167 9.4206 20.6468 10.8925L18.1671 13.3927C17.7471 13.8161 17.5172 14.6327 17.6471 15.2175L18.3571 18.3125C18.917 20.7623 17.6271 21.71 15.4774 20.4296L12.4877 18.6452C11.9478 18.3226 11.0579 18.3226 10.5079 18.6452L7.51827 20.4296C5.3785 21.71 4.07865 20.7522 4.63859 18.3125L5.34851 15.2175C5.47849 14.6327 5.24852 13.8161 4.82856 13.3927L2.34884 10.8925C0.888999 9.4206 1.35895 7.92853 3.39872 7.58575L6.58837 7.05143C7.11831 6.9607 7.75824 6.48687 7.99821 5.99288L9.758 2.44418C10.7179 0.518607 12.2777 0.518607 13.2276 2.44418Z" fill="#E6EAEE" stroke="#B1B4B9" stroke-width="1.5" stroke-linecap="round" stroke-linejoin="round"/>
</svg>
