<svg width="20" height="20" viewBox="0 0 20 20" fill="none" xmlns="http://www.w3.org/2000/svg">
<g id="star">
<path id="Vector" d="M11.44 2.87014L12.9065 5.82739C13.1065 6.23905 13.6397 6.6339 14.0897 6.70951L16.7477 7.15478C18.4476 7.44043 18.8476 8.68382 17.6227 9.9104L15.5562 11.9939C15.2062 12.3467 15.0147 13.0272 15.1229 13.5146L15.7146 16.0937C16.1812 18.1352 15.1062 18.925 13.3148 17.858L10.8234 16.371C10.3735 16.1022 9.63191 16.1022 9.17357 16.371L6.68222 17.858C4.89907 18.925 3.81587 18.1268 4.28248 16.0937L4.87408 13.5146C4.9824 13.0272 4.79076 12.3467 4.44079 11.9939L2.37436 9.9104C1.15782 8.68382 1.54945 7.44043 3.24926 7.15478L5.9073 6.70951C6.34892 6.6339 6.88219 6.23905 7.08217 5.82739L8.54866 2.87014C9.34857 1.2655 10.6484 1.2655 11.44 2.87014Z" stroke="#555E67" stroke-width="1.25" stroke-linecap="round" stroke-linejoin="round"/>
</g>
</svg>
