<svg width="48" height="48" viewBox="0 0 48 48" fill="none" xmlns="http://www.w3.org/2000/svg">
<g id="Frame">
<path id="Vector" d="M7.06543 5.64453L7.68016 5.33716C7.44439 5.38768 7.24227 5.48874 7.06543 5.64453Z" stroke="#229EFF" stroke-width="0.210526" stroke-linecap="round" stroke-linejoin="round"/>
<path id="Vector_2" d="M31.5285 37.0552L30.0674 37.8889L31.5285 40.4152L32.9558 39.5141L31.5285 37.0552Z" stroke="#229EFF" stroke-width="0.210526" stroke-linecap="round" stroke-linejoin="round"/>
<path id="Vector_3" d="M35.0948 39.7751C34.9769 39.3836 34.8169 38.9962 34.6106 38.613L33.1874 36.1541C32.9558 35.7541 32.699 35.4088 32.4169 35.114C32.1348 34.8151 31.8401 34.5793 31.5285 34.4025C31.3474 34.2972 31.1622 34.213 30.9811 34.1582C30.8801 34.1288 30.7832 34.1078 30.6821 34.0909C30.459 34.053 30.2485 34.0741 30.0548 34.1499L29.9116 34.2214L26.7369 36.0151L24.5811 37.232L21.8611 38.7646C21.7053 38.853 21.5916 38.9877 21.5158 39.1646C21.4358 39.3372 21.3979 39.5436 21.3979 39.7793V42.6972C21.3979 43.1982 21.5453 43.7035 21.84 44.213C22.1347 44.7225 22.5011 45.1056 22.939 45.3582L25.4822 46.8235C25.6885 46.9414 25.8864 47.013 26.0801 47.0382C26.2695 47.0593 26.4463 47.0256 26.5979 46.9372L34.0463 42.6888L34.6106 42.3688C34.8422 42.2382 35.0106 42.0319 35.1116 41.754C35.2169 41.4719 35.2674 41.173 35.2674 40.8488C35.2674 40.5246 35.2084 40.1667 35.0948 39.7751ZM31.5285 40.4151L30.0674 37.8888L31.5285 37.0551L32.9558 39.5141L31.5285 40.4151Z" stroke="#229EFF" stroke-width="0.210526" stroke-linecap="round" stroke-linejoin="round"/>
<path id="Vector_4" d="M29.3814 30.1077L27.6635 31.0551C27.3814 31.2151 27.154 31.4677 26.9898 31.8129C26.8214 32.1582 26.7372 32.5667 26.7372 33.0383V36.0151L24.5814 37.2319L21.8614 38.7645C21.7056 38.8529 21.5919 38.9877 21.5161 39.1645C21.4361 39.3372 21.3982 39.5435 21.3982 39.7793V40.1624L17.874 41.9224C18.1688 41.754 18.3161 41.4214 18.3161 40.9203V37.2488C18.3161 36.7772 18.4003 36.3687 18.5687 36.0235C18.7329 35.6782 18.9603 35.4256 19.2424 35.2656L20.2319 34.7225L21.5161 34.0108L29.3308 30.1035H29.3351C29.3351 30.1035 29.3645 30.1035 29.3814 30.1077Z" fill="#95C6FE" stroke="#229EFF" stroke-width="0.210526" stroke-linecap="round" stroke-linejoin="round"/>
<path id="Vector_5" d="M32.0131 23.8046C31.8952 23.3541 31.7225 22.9035 31.491 22.4446L29.5668 18.6341C29.2847 18.0614 28.931 17.5393 28.5057 17.072C28.0847 16.6088 27.6383 16.2425 27.1794 15.973L20.5731 12.1583L13.0741 7.82989L12.8678 7.712L9.45732 5.74143C8.99417 5.47617 8.55202 5.32884 8.12676 5.30779C7.96676 5.29937 7.81939 5.30775 7.68044 5.33722L7.06571 5.64459L5.14152 7.23196C4.90994 7.42143 4.73729 7.6741 4.6194 7.98989C4.50571 8.30568 4.44678 8.672 4.44678 9.08463V31.1436C4.44678 32.1162 4.74994 33.1225 5.35205 34.1625C5.95836 35.2067 6.68257 35.9688 7.52888 36.4615L16.7752 41.7962C17.2131 42.0488 17.5794 42.0909 17.8742 41.9225C18.1689 41.7541 18.3162 41.4215 18.3162 40.9204V37.2488C18.3162 36.7773 18.4004 36.3688 18.5689 36.0235C18.7331 35.6783 18.9605 35.4256 19.2426 35.2656L20.232 34.7225L21.5162 34.0109L18.3162 30.3099L14.3878 30.2973C14.232 30.2973 14.0805 30.2678 13.9289 30.2088C13.5752 30.0783 13.2257 29.7962 12.8847 29.3625C12.3962 28.7394 12.152 28.0909 12.152 27.4131V16.1415L12.8678 16.5541L20.5731 21.0004L24.4805 23.2573V32.3225L27.7562 30.4531C28.2194 30.1625 28.7247 30.0404 29.2762 30.0952C29.2973 30.0952 29.3099 30.0952 29.331 30.1036H29.3352C29.3352 30.1036 29.3647 30.1035 29.3815 30.1077C29.9036 30.1709 30.4678 30.352 31.0699 30.6425C31.3773 30.7899 31.6383 30.8109 31.8573 30.7014C32.0762 30.592 32.1857 30.3604 32.1857 30.0067V25.0973C32.1857 24.6846 32.1268 24.2551 32.0131 23.8046ZM20.5731 17.4678L12.8678 13.0172L8.14781 10.2931L9.45732 9.27827L9.78991 9.472L12.8678 11.2488L20.5731 15.6951L27.1794 19.5099L28.4889 22.0362L20.5731 17.4678Z" stroke="#229EFF" stroke-width="0.210526" stroke-linecap="round" stroke-linejoin="round"/>
<path id="Vector_6" d="M28.4885 22.0361L20.5727 17.4677L12.8675 13.0171L8.14746 10.2929L9.78957 9.47192L12.8675 11.2488L20.5727 15.695L27.179 19.5098L28.4885 22.0361Z" fill="#95C6FE" stroke="#229EFF" stroke-width="0.210526" stroke-linecap="round" stroke-linejoin="round"/>
<path id="Vector_7" d="M40.6065 20.8867V25.7961C40.6065 26.1498 40.497 26.3814 40.2781 26.4909L31.857 30.7014C32.076 30.5919 32.1854 30.3603 32.1854 30.0067V25.0972C32.1854 24.6845 32.1265 24.2551 32.0128 23.8045C31.8949 23.354 31.7223 22.9035 31.4907 22.4445L29.5665 18.634C29.2844 18.0613 28.9307 17.5393 28.5054 17.0719C28.0844 16.6088 27.6381 16.2424 27.1791 15.973L20.5728 12.1582L13.0739 7.82981L12.8675 7.71191L9.45702 5.74139C8.99386 5.47613 8.55175 5.32876 8.12649 5.3077C7.96649 5.29928 7.81912 5.3077 7.68018 5.33718L15.4865 1.43401C15.7686 1.18559 16.1223 1.07194 16.5475 1.0972C16.9728 1.11825 17.4149 1.26558 17.8781 1.53084L35.6002 11.7624C36.0591 12.0319 36.5054 12.3982 36.9265 12.8614C37.3518 13.3288 37.7054 13.8508 37.9875 14.4235L39.9118 18.234C40.1433 18.693 40.316 19.1435 40.4339 19.594C40.5475 20.0445 40.6065 20.474 40.6065 20.8867Z" fill="#95C6FE" stroke="#229EFF" stroke-width="0.210526" stroke-linecap="round" stroke-linejoin="round"/>
<path id="Vector_8" d="M43.6887 36.6383C43.6887 36.9625 43.6381 37.2614 43.5329 37.5436C43.4318 37.8214 43.2634 38.0278 43.0318 38.1583L35.0192 42.7268L26.5981 46.9373L34.0466 42.6889L34.6108 42.3689C34.8424 42.2384 35.0108 42.032 35.1118 41.7541C35.2171 41.472 35.2676 41.173 35.2676 40.8488C35.2676 40.5246 35.2087 40.1667 35.095 39.7752C34.9771 39.3836 34.8171 38.9962 34.6108 38.6131L33.1876 36.1541C32.956 35.7541 32.6992 35.4088 32.4171 35.1141C32.135 34.8151 31.8403 34.5794 31.5287 34.4025C31.3476 34.2973 31.1624 34.213 30.9813 34.1583C30.8802 34.1288 30.7834 34.1078 30.6824 34.091C30.4592 34.0531 30.2487 34.0741 30.055 34.1499L38.3329 30.0109C38.5645 29.8762 38.8213 29.8341 39.1034 29.8804C39.3855 29.9225 39.6676 30.0278 39.9497 30.192C40.2613 30.3689 40.556 30.6046 40.8381 30.9035C41.1203 31.1983 41.3771 31.5436 41.6087 31.9436L43.0318 34.4025C43.2381 34.7857 43.3981 35.1731 43.516 35.5646C43.6297 35.9562 43.6887 36.3141 43.6887 36.6383Z" fill="#95C6FE" stroke="#229EFF" stroke-width="0.210526" stroke-linecap="round" stroke-linejoin="round"/>
<path id="Vector_9" d="M29.3307 30.1036L21.5159 34.0109L18.3159 30.3099L24.4801 27.2278V32.3225L27.7559 30.453C28.2191 30.1625 28.7243 30.0405 29.2759 30.0952C29.297 30.0952 29.3096 30.0952 29.3307 30.1036Z" stroke="#229EFF" stroke-width="0.210526" stroke-linecap="round" stroke-linejoin="round"/>
<path id="Vector_10" d="M24.4803 26.0908V27.2277L18.3161 30.3098L14.3876 30.2971C14.2319 30.2971 14.0803 30.2677 13.9287 30.2088C13.575 30.0782 13.2255 29.7961 12.8845 29.3625C12.3961 28.7393 12.1519 28.0909 12.1519 27.413V16.1414L12.8676 16.554L20.5729 21.0003V23.2025C20.5729 23.8803 20.8171 24.5288 21.3055 25.1519C21.794 25.7709 22.295 26.0824 22.8087 26.0866H24.4803V26.0908Z" fill="#95C6FE" stroke="#229EFF" stroke-width="0.210526" stroke-linecap="round" stroke-linejoin="round"/>
</g>
</svg>
