<svg width="48" height="48" viewBox="0 0 48 48" fill="none" xmlns="http://www.w3.org/2000/svg">
<g id="Frame">
<path id="Vector" d="M24.8672 43.8928C24.8672 44.5277 24.6814 44.9509 24.3098 45.1626C23.933 45.3742 23.4737 45.3225 22.9214 45.0025L3.46336 33.7664C2.91111 33.4515 2.44659 32.9664 2.07498 32.3264C1.70336 31.6813 1.51758 31.0464 1.51758 30.4115C1.51758 29.7767 1.70336 29.3586 2.07498 29.1419L2.18854 29.0851C2.53951 28.9457 2.96788 29.0129 3.46336 29.3019L22.9214 40.538C23.4737 40.8528 23.933 41.338 24.3098 41.978C24.6814 42.6232 24.8672 43.258 24.8672 43.8928Z" stroke="#03A708" stroke-width="0.258065" stroke-linecap="round" stroke-linejoin="round"/>
<path id="Vector_2" d="M34.0698 17.1988C33.9511 16.9768 33.8272 16.7549 33.6982 16.533C31.9382 13.5033 29.8427 11.2117 27.4066 9.65813C27.2104 9.5291 27.0143 9.40528 26.813 9.29173C24.315 7.85173 22.1627 7.542 20.3511 8.37297L19.9279 8.58463C19.582 8.78076 19.2672 9.01297 18.9833 9.28135C18.0956 10.1072 17.5227 11.2633 17.2543 12.7446C17.1408 13.3846 17.084 14.0814 17.084 14.8401C17.084 15.5988 17.1459 16.4194 17.2698 17.2194C17.3782 17.9317 17.5382 18.6543 17.755 19.382C18.0646 20.4814 18.4982 21.5911 19.0453 22.7111C19.3085 23.2633 19.6079 23.8207 19.9279 24.3781C21.6156 27.2891 23.613 29.5188 25.9304 31.0672C26.2195 31.2633 26.5137 31.444 26.813 31.6195C29.502 33.173 31.7988 33.4104 33.6982 32.3266C35.5872 31.2479 36.5369 29.173 36.542 26.0917V26.0711C36.542 23.1962 35.7162 20.2336 34.0698 17.1988ZM31.6285 21.1162L31.515 21.1833L27.835 23.3201L26.813 23.9136C26.4259 24.1355 25.9717 24.0994 25.4504 23.8001C24.9291 23.5007 24.4801 23.0155 24.0879 22.3446L23.0556 20.5639L21.9975 18.7368C21.8014 18.4014 21.7033 18.0814 21.7033 17.7872C21.7033 17.6117 21.7395 17.4672 21.8169 17.3537C21.853 17.2762 21.9201 17.2195 21.9975 17.173C22.0956 17.1162 22.204 17.0904 22.3227 17.0956C22.4362 17.1008 22.555 17.1368 22.6788 17.2039C22.9369 17.333 23.164 17.5652 23.3601 17.9007L25.4504 21.5085L30.0595 18.8814L30.2659 18.7626C30.4466 18.6646 30.6479 18.6749 30.8801 18.7936H30.8853C30.8853 18.7936 30.9266 18.8143 30.9472 18.8246C31.2053 18.9743 31.4324 19.2169 31.6285 19.5524C31.8246 19.8879 31.9227 20.2026 31.9227 20.502C31.9227 20.8014 31.8246 21.0026 31.6285 21.1162Z" stroke="#03A708" stroke-width="0.258065" stroke-linecap="round" stroke-linejoin="round"/>
<path id="Vector_3" d="M35.1898 38.7316C35.1898 39.3664 35.0039 39.7897 34.6323 40.0013L34.5188 40.0581L24.3098 45.1626C24.6814 44.951 24.8672 44.5277 24.8672 43.8929C24.8672 43.2581 24.6814 42.6232 24.3098 41.9781C23.933 41.3381 23.4736 40.8529 22.9214 40.5381L3.4633 29.302C2.96782 29.0129 2.53944 28.9458 2.18848 29.0852L6.81298 26.7729L18.8852 33.7407C19.4685 34.0762 19.9382 34.1278 20.2943 33.8852L25.8478 31.1084L33.2439 35.3768C33.7962 35.6916 34.2556 36.1768 34.6323 36.8168C35.0039 37.4619 35.1898 38.0968 35.1898 38.7316Z" fill="#8BD78D" stroke="#03A708" stroke-width="0.258065" stroke-linecap="round" stroke-linejoin="round"/>
<path id="Vector_4" d="M30.8804 18.7935L30.2042 19.1342L25.4507 21.5084L30.0597 18.8813L30.2662 18.7626C30.4468 18.6645 30.6481 18.6748 30.8804 18.7935Z" stroke="#03A708" stroke-width="0.258065" stroke-linecap="round" stroke-linejoin="round"/>
<path id="Vector_5" d="M31.9225 20.5019C31.9225 20.8012 31.8244 21.0025 31.6283 21.1161L31.5147 21.1831L27.8347 23.3199L26.8128 23.9135C26.4257 24.1354 25.9715 24.0993 25.4502 23.7999C24.9289 23.5006 24.4799 23.0154 24.0876 22.3444L23.0554 20.5638L21.9973 18.7367C21.8012 18.4012 21.7031 18.0812 21.7031 17.787C21.7031 17.6115 21.7393 17.4671 21.8167 17.3535L22.3225 17.0955C22.436 17.1006 22.5547 17.1367 22.6786 17.2038C22.9367 17.3328 23.1638 17.5651 23.3599 17.9006L25.4502 21.5083L30.2038 19.1341L30.8799 18.7935H30.8851C30.8851 18.7935 30.9264 18.8141 30.947 18.8244C31.2051 18.9741 31.4322 19.2167 31.6283 19.5522C31.8244 19.8877 31.9225 20.2025 31.9225 20.5019Z" fill="#8BD78D" stroke="#03A708" stroke-width="0.258065" stroke-linecap="round" stroke-linejoin="round"/>
<path id="Vector_6" d="M17.2698 17.2194C17.3781 17.9317 17.5381 18.6543 17.7549 19.382L15.3549 20.5846L13.9459 21.2866C14.3072 21.0595 14.493 20.662 14.5033 20.0891V20.0478C14.5033 19.413 14.3175 18.7782 13.9459 18.133C13.5743 17.493 13.1098 17.0078 12.5575 16.693L11.8401 16.2801L10.9627 15.7691L3.4633 11.4388C2.96782 11.1497 2.53944 11.0827 2.18848 11.222L12.3975 6.1175C12.7691 5.90589 13.2336 5.95747 13.7859 6.27747L18.9833 9.28135C18.0956 10.1072 17.5227 11.2633 17.2543 12.7446C17.1407 13.3846 17.0839 14.0814 17.0839 14.8401C17.0839 15.5988 17.1459 16.4194 17.2698 17.2194Z" fill="#8BD78D" stroke="#03A708" stroke-width="0.258065" stroke-linecap="round" stroke-linejoin="round"/>
<path id="Vector_7" d="M14.5034 20.0476V20.0889C14.493 20.6618 14.3072 21.0593 13.9459 21.2863C13.5743 21.5186 13.1098 21.4773 12.5576 21.1573L6.81821 17.8438L3.46336 15.9031C2.91111 15.5883 2.44659 15.1083 2.07498 14.4631C1.70336 13.818 1.51758 13.1831 1.51758 12.5483C1.51758 11.9134 1.70336 11.4954 2.07498 11.2786L2.18854 11.2218C2.53951 11.0825 2.96788 11.1495 3.46336 11.4386L10.9627 15.7689L11.8401 16.2798L12.5576 16.6928C13.1098 17.0076 13.5743 17.4928 13.9459 18.1328C14.3176 18.778 14.5034 19.4128 14.5034 20.0476Z" stroke="#03A708" stroke-width="0.258065" stroke-linecap="round" stroke-linejoin="round"/>
<path id="Vector_8" d="M25.9304 31.067L20.2943 33.8851C20.6401 33.6477 20.8207 33.245 20.831 32.6721V32.6308C20.831 31.996 20.6401 31.3612 20.2685 30.7161C19.8968 30.0709 19.4323 29.5908 18.8852 29.276L11.8401 25.2089L10.9575 24.6979L3.4633 20.3728C2.96782 20.0837 2.53944 20.0167 2.18848 20.156L6.81814 17.8438L12.5575 21.1573C13.1098 21.4773 13.5743 21.5186 13.9459 21.2864L15.3549 20.5844L19.0452 22.7109C19.3085 23.2632 19.6078 23.8205 19.9278 24.3779C21.6156 27.2889 23.613 29.5186 25.9304 31.067Z" fill="#8BD78D" stroke="#03A708" stroke-width="0.258065" stroke-linecap="round" stroke-linejoin="round"/>
<path id="Vector_9" d="M20.8311 32.631V32.6723C20.8208 33.2452 20.6401 33.6478 20.2943 33.8852C19.9382 34.1278 19.4685 34.0762 18.8853 33.7407L6.81305 26.773L3.46336 24.8375C2.91111 24.5175 2.44659 24.0375 2.07498 23.3923C1.70336 22.7523 1.51758 22.1123 1.51758 21.4826C1.51758 20.853 1.70336 20.4245 2.07498 20.2129L2.18854 20.1561C2.53951 20.0168 2.96788 20.0839 3.46336 20.373L10.9576 24.6981L11.8401 25.2091L18.8853 29.2762C19.4324 29.591 19.8969 30.071 20.2685 30.7162C20.6401 31.3613 20.8311 31.9962 20.8311 32.631Z" stroke="#03A708" stroke-width="0.258065" stroke-linecap="round" stroke-linejoin="round"/>
<path id="Vector_10" d="M46.8651 20.9097C46.8651 24.0013 45.9154 26.0865 44.0212 27.1652L43.598 27.3768L33.6986 32.3265C35.5876 31.2478 36.5374 29.173 36.5425 26.0917V26.071C36.5425 23.1962 35.7167 20.2336 34.0702 17.1988C33.9515 16.9768 33.8276 16.7548 33.6986 16.5329C31.9386 13.5032 29.8431 11.2117 27.407 9.65812C27.2109 9.52909 27.0147 9.40522 26.8134 9.29167C24.3154 7.85167 22.1632 7.54199 20.3516 8.37296L30.2509 3.4233C32.1503 2.33943 34.4418 2.57684 37.136 4.13039C39.8251 5.68394 42.1218 8.09936 44.0212 11.3716C45.9154 14.6439 46.8651 17.8233 46.8651 20.9097Z" fill="#8BD78D" stroke="#03A708" stroke-width="0.258065" stroke-linecap="round" stroke-linejoin="round"/>
</g>
</svg>
