<svg width="20" height="20" viewBox="0 0 20 20" fill="none" xmlns="http://www.w3.org/2000/svg">
<g id="text-firstline-right">
<path id="Vector" d="M12.5 2.91669H17.5" stroke="#555E67" stroke-width="1.25" stroke-linecap="round" stroke-linejoin="round"/>
<path id="Vector_2" d="M12.5 7.91666H17.5" stroke="#555E67" stroke-width="1.25" stroke-linecap="round" stroke-linejoin="round"/>
<path id="Vector_3" d="M2.5 12.9167H17.5" stroke="#555E67" stroke-width="1.25" stroke-linecap="round" stroke-linejoin="round"/>
<path id="Vector_4" d="M2.5 17.9167H17.5" stroke="#555E67" stroke-width="1.25" stroke-linecap="round" stroke-linejoin="round"/>
<path id="Vector_5" d="M2.98816 8.26182C3.47631 8.74998 4.26198 8.74998 5.83333 8.74998C7.40468 8.74998 8.19036 8.74998 8.6785 8.26182C9.16667 7.77367 9.16667 6.988 9.16667 5.41665C9.16667 3.8453 9.16667 3.05962 8.6785 2.57147C8.19036 2.08331 7.40468 2.08331 5.83333 2.08331C4.26198 2.08331 3.47631 2.08331 2.98816 2.57147C2.5 3.05962 2.5 3.8453 2.5 5.41665C2.5 6.988 2.5 7.77367 2.98816 8.26182Z" stroke="#555E67" stroke-width="1.25" stroke-linecap="round" stroke-linejoin="round"/>
</g>
</svg>
