<svg width="20" height="20" viewBox="0 0 20 20" fill="none" xmlns="http://www.w3.org/2000/svg">
<g id="text">
<path id="Vector" d="M12.5 17.5008H7.5" stroke="#555E67" stroke-width="1.25" stroke-linecap="round" stroke-linejoin="round"/>
<path id="Vector_2" d="M10.0003 2.5V17.5007M10.0003 2.5C11.1565 2.5 12.6416 2.52545 13.824 2.64707C14.3241 2.69849 14.5742 2.72421 14.7954 2.81492C15.2558 3.00357 15.6268 3.41718 15.7665 3.89733C15.8337 4.12817 15.8337 4.39159 15.8337 4.91845M10.0003 2.5C8.84416 2.5 7.35905 2.52545 6.17667 2.64707C5.67658 2.69849 5.42653 2.72421 5.20521 2.81492C4.74486 3.00357 4.37379 3.41718 4.23413 3.89733C4.16699 4.12817 4.16699 4.39159 4.16699 4.91845" stroke="#555E67" stroke-width="1.25" stroke-linecap="round"/>
</g>
</svg>
