<svg width="16" height="16" viewBox="0 0 16 16" fill="none" xmlns="http://www.w3.org/2000/svg">
<g id="timer-02">
<path id="Vector" d="M1.3335 14.6667H8.66683C11.9806 14.6667 14.6668 11.9805 14.6668 8.66675C14.6668 5.35304 11.9806 2.66675 8.66683 2.66675C5.57846 2.66675 2.99846 5.00011 2.66683 8.00008" stroke="#0A376A" stroke-width="1.5" stroke-linecap="round"/>
<path id="Vector_2" d="M12.3332 3.66667L12.9998 3M3.6665 3L4.33317 3.66667" stroke="#0A376A" stroke-width="1.5" stroke-linecap="round" stroke-linejoin="round"/>
<path id="Vector_3" d="M11.0002 6L9.04063 7.95958M9.04063 7.95958C8.85963 7.77858 8.60963 7.66665 8.3335 7.66665C7.78123 7.66665 7.3335 8.11438 7.3335 8.66665C7.3335 9.21898 7.78123 9.66665 8.3335 9.66665C8.88576 9.66665 9.3335 9.21898 9.3335 8.66665C9.3335 8.39051 9.22156 8.14051 9.04063 7.95958Z" stroke="#0A376A" stroke-width="1.5" stroke-linecap="round"/>
<path id="Vector_4" d="M8.3335 2.33325V1.33325" stroke="#0A376A" stroke-width="1.5" stroke-linecap="round" stroke-linejoin="round"/>
<path id="Vector_5" d="M7 1.33325H9.66667" stroke="#0A376A" stroke-width="1.5" stroke-linecap="round" stroke-linejoin="round"/>
<path id="Vector_6" d="M1.3335 10H3.3335" stroke="#0A376A" stroke-width="1.5" stroke-linecap="round" stroke-linejoin="round"/>
<path id="Vector_7" d="M1.3335 12.6667H4.66683" stroke="#0A376A" stroke-width="1.5" stroke-linecap="round" stroke-linejoin="round"/>
</g>
</svg>
