<svg width="41" height="40" viewBox="0 0 41 40" fill="none" xmlns="http://www.w3.org/2000/svg">
<rect x="0.65" y="0.4" width="39.2" height="39.2" rx="7.6" fill="#EBEAFF"/>
<rect x="0.65" y="0.4" width="39.2" height="39.2" rx="7.6" stroke="#DDDBFF" stroke-width="0.8"/>
<path d="M29.024 26C29.7733 26 30.3693 25.5285 30.9044 24.8691C31.9999 23.5194 30.2013 22.4408 29.5153 21.9126C28.818 21.3756 28.0394 21.0714 27.25 21M26.25 19C27.6307 19 28.75 17.8807 28.75 16.5C28.75 15.1193 27.6307 14 26.25 14" stroke="#0E03A7" stroke-width="1.5" stroke-linecap="round"/>
<path d="M11.476 26C10.7267 26 10.1307 25.5285 9.59554 24.8691C8.50009 23.5194 10.2987 22.4408 10.9846 21.9126C11.682 21.3756 12.4606 21.0714 13.25 21M13.75 19C12.3693 19 11.25 17.8807 11.25 16.5C11.25 15.1193 12.3693 14 13.75 14" stroke="#0E03A7" stroke-width="1.5" stroke-linecap="round"/>
<path d="M16.3338 23.1112C15.312 23.743 12.633 25.0331 14.2647 26.6474C15.0618 27.436 15.9495 28 17.0656 28H23.4344C24.5505 28 25.4382 27.436 26.2353 26.6474C27.867 25.0331 25.188 23.743 24.1662 23.1112C21.7701 21.6296 18.7298 21.6296 16.3338 23.1112Z" stroke="#0E03A7" stroke-width="1.5" stroke-linecap="round" stroke-linejoin="round"/>
<path d="M23.75 15.5C23.75 17.433 22.183 19 20.25 19C18.317 19 16.75 17.433 16.75 15.5C16.75 13.567 18.317 12 20.25 12C22.183 12 23.75 13.567 23.75 15.5Z" stroke="#0E03A7" stroke-width="1.5"/>
</svg>
