<svg width="38" height="38" viewBox="0 0 38 38" fill="none" xmlns="http://www.w3.org/2000/svg">
<g opacity="0.8">
<rect x="0.5" y="0.5" width="37" height="37" rx="8.5" fill="#E8F3FF"/>
<rect x="0.5" y="0.5" width="37" height="37" rx="8.5" stroke="#DCEDFF"/>
<path d="M24.0002 21.5V27.3333M26.9168 24.4167H21.0835" stroke="#1883FD" stroke-width="1.5" stroke-linecap="round"/>
<path d="M14.8335 22.3332H18.1668M14.8335 18.1665H21.5002" stroke="#1883FD" stroke-width="1.5" stroke-linecap="round"/>
<path d="M14.4167 11.9165C13.1202 11.9554 12.3472 12.0997 11.8123 12.6351C11.0801 13.368 11.0801 14.5476 11.0801 16.9068V22.3285C11.0801 24.6878 11.0801 25.8673 11.8123 26.6003C12.5445 27.3332 13.7231 27.3332 16.0801 27.3332H18.5833M21.9102 11.9165C23.2067 11.9554 23.9797 12.0997 24.5145 12.6351C25.2468 13.368 25.2468 14.5476 25.2468 16.9068V18.9998" stroke="#1883FD" stroke-width="1.5" stroke-linecap="round"/>
<path d="M14.4136 12.1248C14.4136 11.3194 15.0665 10.6665 15.8719 10.6665H20.4552C21.2607 10.6665 21.9136 11.3194 21.9136 12.1248C21.9136 12.9303 21.2607 13.5832 20.4552 13.5832H15.8719C15.0665 13.5832 14.4136 12.9303 14.4136 12.1248Z" stroke="#1883FD" stroke-width="1.5" stroke-linejoin="round"/>
</g>
</svg>
