<svg width="152" height="152" viewBox="0 0 152 152" fill="none" xmlns="http://www.w3.org/2000/svg">
<path d="M72.9848 127.768C73.8013 129.175 74.2034 130.569 74.2034 131.951C74.2034 133.333 73.8013 134.263 72.9848 134.727C72.1682 135.192 71.1507 135.079 69.9448 134.388L65.6863 131.926C61.0006 129.213 56.9809 124.98 53.652 119.226C51.1773 114.968 49.6195 110.81 48.9788 106.752C48.7527 105.333 48.6396 103.913 48.6396 102.519C48.6396 97.7955 49.9335 94.4037 52.5087 92.3687C52.873 92.0923 53.25 91.8285 53.652 91.6024L54.4434 91.213C57.609 89.7809 61.3649 90.3085 65.6863 92.8084L66.1135 93.0596L69.9448 95.2705C71.1507 95.9614 72.1682 97.0166 72.9848 98.4236C73.8013 99.8305 74.2034 101.237 74.2034 102.619C74.2034 104.001 73.8013 104.931 72.9848 105.395C72.1682 105.86 71.1507 105.747 69.9448 105.044L65.6863 102.582C63.3372 101.237 61.3399 101.036 59.6692 101.979C57.9985 102.933 57.1568 104.755 57.1568 107.443C57.1568 110.131 57.9985 112.92 59.6692 115.797C61.3399 118.673 63.3372 120.796 65.6863 122.141L69.9448 124.603C71.1507 125.306 72.1682 126.349 72.9848 127.768Z" fill="#EDE9F7" stroke="#4A22B3" stroke-width="0.694215" stroke-linecap="round" stroke-linejoin="round"/>
<path d="M93.0089 57.6722C91.3381 54.7955 89.3283 52.6725 86.9918 51.3284L86.5521 51.0772L78.0225 46.1529L60.9758 36.3043L43.9417 26.4682L27.3349 16.8834C24.9858 15.5268 22.9884 15.3258 21.3177 16.2805C19.6469 17.2352 18.8179 19.0441 18.8179 21.7449V90.1952C18.8179 92.8835 19.6469 95.6722 21.3177 98.5489C22.9884 101.426 24.9858 103.536 27.3349 104.893L37.9875 111.048C39.1934 111.739 40.1356 111.676 40.8139 110.835C41.4797 110.005 41.643 108.749 41.2913 107.078C40.9396 105.496 40.6506 103.875 40.4371 102.255C40.2235 100.622 40.123 99.0765 40.123 97.6068C40.123 96.7023 40.1355 95.8858 40.1731 95.132C40.2108 94.3783 40.2989 93.6372 40.4371 92.896L40.123 92.7201C38.9045 92.0167 37.8995 90.9615 37.083 89.5545C36.2665 88.1476 35.8518 86.7532 35.8518 85.3588V75.5856C35.8518 74.2038 36.2665 73.2742 37.083 72.8094C37.8995 72.3446 38.9045 72.4577 40.123 73.1611L43.9417 75.372L51.5167 79.7436C53.5769 79.3793 55.8004 79.4547 58.1746 79.9697C59.7072 80.3089 61.3025 80.8616 62.9481 81.6028C63.7144 81.9545 64.4931 82.3565 65.2845 82.7962C65.4227 82.8716 65.5484 82.9469 65.6865 83.0223L68.0609 84.3915L73.8645 87.7456L82.5072 92.7327L89.8434 96.9661L90.9111 97.5816L91.2503 97.7826C91.2503 97.7826 91.2503 97.7826 91.2503 97.7952C92.4562 98.4861 93.4612 98.5992 94.2777 98.1344C94.6043 97.9459 94.8555 97.6947 95.0439 97.3681C95.3454 96.8656 95.4962 96.1998 95.4962 95.3582V66.0259C95.4962 63.3377 94.6672 60.5489 92.9964 57.6722H93.0089ZM52.8986 65.8626C52.8986 67.257 52.4966 68.174 51.68 68.6388C50.8635 69.1162 49.8459 68.9906 48.6399 68.2996L43.9417 65.5863L40.123 63.3753C38.9045 62.6844 37.8995 61.6292 37.083 60.2223C36.2665 58.8153 35.8518 57.4084 35.8518 56.0266V46.2534C35.8518 44.859 36.2665 43.942 37.083 43.4772C37.8995 43.0124 38.9045 43.1254 40.123 43.8163L43.9417 46.0272L48.6399 48.7406C49.8459 49.4315 50.8635 50.4868 51.68 51.8937C52.4966 53.3006 52.8986 54.7076 52.8986 56.0894V65.8626ZM78.4622 80.6229C78.4622 82.0173 78.0602 82.9344 77.2437 83.4117C76.603 83.776 75.8242 83.776 74.9323 83.4117C74.7062 83.3238 74.4549 83.1982 74.2037 83.06L72.5956 82.1304L65.6865 78.1357C64.4806 77.4448 63.4632 76.3896 62.6467 74.9826C61.8301 73.5757 61.4281 72.1687 61.4281 70.7869V61.0137C61.4281 59.6193 61.8301 58.7023 62.6467 58.2375C63.4632 57.7727 64.4806 57.8858 65.6865 58.5767L74.2037 63.501C75.4096 64.1919 76.4272 65.2471 77.2437 66.654C77.3191 66.7922 77.3944 66.9304 77.4698 67.056C78.1356 68.3373 78.4622 69.5935 78.4622 70.8497V80.6229Z" fill="#EDE9F7" stroke="#4A22B3" stroke-width="0.694215" stroke-linecap="round" stroke-linejoin="round"/>
<path d="M95.0684 97.3682H95.0558C94.8674 97.6948 94.6162 97.946 94.2896 98.1344L95.4201 97.569L95.0684 97.3682Z" stroke="#4A22B3" stroke-width="0.694215" stroke-linecap="round" stroke-linejoin="round"/>
<path d="M91.2501 127.127C91.2501 126.637 91.1999 126.16 91.0994 125.67C90.911 124.753 90.5591 123.849 90.0189 122.931C89.2024 121.525 88.1974 120.469 86.9915 119.778L69.9449 109.93C68.8646 109.314 67.9225 109.151 67.1562 109.465C68.4878 108.749 72.7965 106.588 77.4695 104.264C79.5548 103.222 81.7156 102.141 83.7255 101.149C86.7906 99.629 89.4788 98.2974 90.9108 97.5814L91.2501 97.7824C91.2501 97.7824 91.2501 97.7824 91.2501 97.795C92.4561 98.4859 93.4609 98.5989 94.2774 98.1341L95.4082 97.5688L96.7523 98.3477L84.1903 104.629L83.9389 104.754C83.1224 105.232 82.7204 106.149 82.7204 107.531C82.7204 108.912 83.1224 110.319 83.9389 111.726C84.7555 113.133 85.773 114.188 86.9789 114.892L91.2375 117.341C93.2097 118.485 94.9307 120.155 96.413 122.366C96.526 122.517 96.6265 122.68 96.727 122.844C96.9029 123.12 97.0788 123.409 97.2546 123.698C97.6566 124.389 98.0084 125.08 98.3098 125.758L90.0065 129.904C90.8356 129.439 91.2375 128.509 91.2375 127.127H91.2501Z" stroke="#4A22B3" stroke-width="0.694215" stroke-linecap="round" stroke-linejoin="round"/>
<path d="M62.9478 81.6032L48.3255 88.7259L40.1226 92.7206C38.9041 92.0171 37.8992 90.9619 37.0826 89.555C36.2661 88.148 35.8516 86.7535 35.8516 85.3592V75.5861C35.8516 74.2042 36.2661 73.2746 37.0826 72.8099C37.8992 72.3451 38.9041 72.4581 40.1226 73.1616L43.9415 75.3725L51.5164 79.7441C53.5765 79.3798 55.8 79.4551 58.1742 79.9702C59.7068 80.3094 61.3021 80.8621 62.9478 81.6032Z" stroke="#4A22B3" stroke-width="0.694215" stroke-linecap="round" stroke-linejoin="round"/>
<path d="M52.8982 56.0889V65.8621C52.8982 67.2565 52.4962 68.1735 51.6797 68.6383C50.8631 69.1157 49.8455 68.9901 48.6395 68.2992L43.9415 65.5858L40.1226 63.3749C38.9041 62.684 37.8992 61.6287 37.0826 60.2218C36.2661 58.8149 35.8516 57.4079 35.8516 56.0261V46.2529C35.8516 44.8585 36.2661 43.9415 37.0826 43.4767C37.8992 43.0119 38.9041 43.1249 40.1226 43.8159L43.9415 46.0268L48.6395 48.7402C49.8455 49.4311 50.8631 50.4863 51.6797 51.8932C52.4962 53.3001 52.8982 54.7071 52.8982 56.0889Z" stroke="#4A22B3" stroke-width="0.694215" stroke-linecap="round" stroke-linejoin="round"/>
<path d="M78.4618 70.8497V80.6229C78.4618 82.0173 78.0598 82.9343 77.2433 83.4116C76.6026 83.7759 75.8238 83.7759 74.9319 83.4116C74.7058 83.3237 74.4545 83.1981 74.2033 83.0599L72.5953 82.1303L65.6863 78.1356C64.4803 77.4447 63.4628 76.3895 62.6462 74.9825C61.8297 73.5756 61.4277 72.1687 61.4277 70.7868V61.0136C61.4277 59.6192 61.8297 58.7022 62.6462 58.2374C63.4628 57.7726 64.4803 57.8857 65.6863 58.5766L74.2033 63.5009C75.4092 64.1918 76.4267 65.247 77.2433 66.6539C77.3186 66.7921 77.394 66.9303 77.4694 67.0559C78.1352 68.3373 78.4618 69.5935 78.4618 70.8497Z" stroke="#4A22B3" stroke-width="0.694215" stroke-linecap="round" stroke-linejoin="round"/>
<path d="M120.633 53.4639V82.7961C120.633 84.1779 120.23 85.1075 119.414 85.5723L119.163 85.6979L95.4205 97.569L95.0687 97.368H95.0562C95.3577 96.8655 95.5085 96.1998 95.5085 95.3581V66.0259C95.5085 63.3376 94.6793 60.5488 93.0086 57.6721C91.3378 54.7954 89.3279 52.6725 86.9914 51.3283L86.5517 51.0771L78.0221 46.1528L60.9755 36.3042L43.9415 26.4682L27.3346 16.8834C24.9855 15.5267 22.9881 15.3257 21.3174 16.2804L46.4413 3.71846C48.1121 2.76375 50.1094 2.96474 52.4585 4.32143L112.115 38.7664C114.452 40.1105 116.462 42.2335 118.133 45.1102C119.803 47.9869 120.633 50.7756 120.633 53.4639Z" fill="#AC99DC" stroke="#4A22B3" stroke-width="0.694215" stroke-linecap="round" stroke-linejoin="round"/>
<path d="M99.7668 132.052C99.7668 134.74 98.9377 136.561 97.267 137.504C95.5962 138.458 93.599 138.257 91.2499 136.901L86.9914 134.439C85.9111 133.823 84.9689 133.66 84.2026 133.974L98.7117 126.713C99.4152 128.534 99.7668 130.306 99.7668 132.052Z" stroke="#4A22B3" stroke-width="0.694215" stroke-linecap="round" stroke-linejoin="round"/>
<path d="M74.2038 131.951C74.2038 130.569 73.8019 129.175 72.9853 127.768C72.1688 126.348 71.1513 125.306 69.9453 124.603L65.6868 122.14C63.3377 120.796 61.3404 118.673 59.6696 115.797C57.9989 112.92 57.1572 110.131 57.1572 107.443C57.1572 104.755 57.9989 102.933 59.6696 101.978C61.3404 101.036 63.3377 101.237 65.6868 102.581L69.9453 105.044C71.1513 105.747 72.1688 105.86 72.9853 105.395L83.3364 100.22C83.4495 100.534 83.5751 100.835 83.7258 101.149C81.7159 102.142 79.5552 103.222 77.47 104.265C72.7969 106.589 68.4881 108.749 67.1566 109.465C67.0561 109.516 66.9681 109.553 66.9053 109.591C66.0888 110.056 65.6868 110.985 65.6868 112.367C65.6868 113.749 66.0888 115.143 66.9053 116.55C67.7219 117.97 68.7394 119.012 69.9453 119.716L85.2961 128.572L72.9853 134.727C73.8019 134.262 74.2038 133.333 74.2038 131.951Z" stroke="#4A22B3" stroke-width="0.694215" stroke-linecap="round" stroke-linejoin="round"/>
<path d="M91.2503 127.127C91.2503 128.509 90.8482 129.439 90.0191 129.904C89.2026 130.368 88.1977 130.255 86.9918 129.552L85.2959 128.572L69.9452 119.716C68.7392 119.013 67.7217 117.97 66.9052 116.55C66.0886 115.143 65.6865 113.749 65.6865 112.367C65.6865 110.985 66.0886 110.056 66.9052 109.591C66.968 109.553 67.0559 109.516 67.1564 109.465C67.9227 109.151 68.8648 109.315 69.9452 109.93L86.9918 119.779C88.1977 120.47 89.2026 121.525 90.0191 122.932C90.5592 123.849 90.9111 124.753 91.0995 125.67C91.2 126.16 91.2503 126.637 91.2503 127.127Z" fill="#EDE9F7" stroke="#4A22B3" stroke-width="0.694215" stroke-linecap="round" stroke-linejoin="round"/>
<path d="M108.297 136.963C108.297 142.34 106.626 145.983 103.284 147.892C99.9553 149.789 95.9356 149.387 91.2499 146.686L86.9914 144.224C85.7855 143.521 84.7679 142.478 83.9514 141.071C83.1349 139.652 82.7329 138.257 82.7329 136.875C82.7329 135.494 83.1349 134.564 83.9514 134.099L84.2027 133.974C84.9689 133.66 85.9111 133.823 86.9914 134.438L91.2499 136.901C93.599 138.257 95.5964 138.458 97.2671 137.504C98.9379 136.561 99.767 134.74 99.767 132.052C99.767 130.305 99.4152 128.534 98.7118 126.713C98.5987 126.399 98.4731 126.085 98.3223 125.758C98.0208 125.08 97.6691 124.389 97.2671 123.698C97.0913 123.409 96.9154 123.12 96.7395 122.844C96.639 122.68 96.5385 122.517 96.4255 122.366C94.9432 120.155 93.2222 118.485 91.2499 117.341L86.9914 114.892C85.7855 114.188 84.7679 113.133 83.9514 111.726C83.1349 110.319 82.7329 108.925 82.7329 107.53C82.7329 106.136 83.1349 105.232 83.9514 104.754L84.2027 104.629C84.6298 104.465 85.1071 104.428 85.6347 104.553C86.0618 104.641 86.5015 104.83 86.9914 105.106L91.2499 107.568C95.9356 110.269 99.9553 114.49 103.284 120.206C103.762 121.009 104.189 121.813 104.603 122.617C104.754 122.931 104.905 123.233 105.056 123.547C107.216 128.107 108.297 132.579 108.297 136.963Z" fill="#EDE9F7" stroke="#4A22B3" stroke-width="0.694215" stroke-linecap="round" stroke-linejoin="round"/>
<path d="M133.42 124.401C133.42 129.778 131.75 133.421 128.408 135.33L127.566 135.745L103.284 147.892C106.626 145.983 108.297 142.34 108.297 136.963C108.297 132.579 107.216 128.107 105.056 123.547C104.905 123.233 104.754 122.932 104.603 122.618C104.189 121.814 103.762 121.01 103.284 120.206C99.9552 114.49 95.9355 110.269 91.2499 107.568L86.9914 105.106C86.5015 104.83 86.0617 104.641 85.6346 104.553C85.107 104.428 84.6297 104.466 84.2026 104.629L96.7646 98.3479L109.075 92.1925C109.892 91.7277 110.909 91.8533 112.115 92.5442L116.374 95.0064C121.059 97.7072 125.079 101.928 128.408 107.644C131.75 113.359 133.42 118.95 133.42 124.401Z" fill="#AC99DC" stroke="#4A22B3" stroke-width="0.694215" stroke-linecap="round" stroke-linejoin="round"/>
<path d="M89.843 96.9662L83.3359 100.22L72.9848 105.395C73.8014 104.93 74.2034 104.001 74.2034 102.619C74.2034 101.237 73.8014 99.8303 72.9848 98.4233C72.1683 97.0164 71.1508 95.9612 69.9448 95.2703L66.1134 93.0594L65.6863 92.8081C61.365 90.3083 57.609 89.7807 54.4434 91.2128L65.2592 85.7985L68.0605 84.3916L73.8642 87.7456L82.5068 92.7328L89.843 96.9662Z" fill="#AC99DC" stroke="#4A22B3" stroke-width="0.694215" stroke-linecap="round" stroke-linejoin="round"/>
<path d="M65.247 85.0445C65.247 85.2958 65.2471 85.547 65.2597 85.7982L54.4438 91.2125L53.6524 91.6019C53.2504 91.828 52.8735 92.0918 52.5092 92.3682C49.934 94.4032 48.6401 97.7949 48.6401 102.518C48.6401 103.913 48.7531 105.332 48.9792 106.752L40.814 110.834C41.4797 110.005 41.643 108.749 41.2913 107.078C40.9396 105.495 40.6507 103.875 40.4371 102.254C40.2235 100.621 40.123 99.0763 40.123 97.6065C40.123 96.702 40.1356 95.8855 40.1733 95.1318C40.211 94.3781 40.2989 93.6369 40.4371 92.8958L40.123 92.7199L48.326 88.7252L62.9482 81.6025C63.7145 81.9543 64.4933 82.3563 65.2847 82.7959C65.2596 83.4868 65.247 84.228 65.247 85.0445Z" stroke="#4A22B3" stroke-width="0.694215" stroke-linecap="round" stroke-linejoin="round"/>
</svg>
